<svg height='100px' width='100px'  fill="#000000" version="1.1" xmlns="http://www.w3.org/2000/svg" xmlns:xlink="http://www.w3.org/1999/xlink" x="0px" y="0px" viewBox="0 0 59.723 100" enable-background="new 0 0 59.723 100" xml:space="preserve"><path d="M58.702,43.375l-9.215-9.214L43.75,20.833c-1.389-2.778-4.166-4.167-6.944-4.167H22.917c-2.778,0-5.556,1.389-6.944,4.167
	l-5.737,13.327l-9.214,9.214C0.391,44.003,0,44.873,0,45.833c0,1.917,1.555,3.472,3.473,3.472c0.96,0,1.83-0.391,2.458-1.021
	l9.716-9.714c0.331-0.331,0.59-0.73,0.768-1.171l0.004,0.001l3.721-8.234V75c0,2.302,1.866,4.167,4.167,4.167
	c2.301,0,4.167-1.865,4.167-4.167V52.777h2.777V87.5c0,2.302,1.866,4.167,4.167,4.167c2.3,0,4.167-1.865,4.167-4.167V29.167
	l3.72,8.234l0.004-0.001c0.178,0.441,0.438,0.84,0.769,1.171l9.717,9.714c0.628,0.631,1.497,1.021,2.457,1.021
	c1.918,0,3.473-1.555,3.473-3.472C59.723,44.873,59.332,44.003,58.702,43.375z"></path><circle cx="29.861" cy="6.944" r="6.944"></circle><path d="M54.861,52.777c0,20.276-4.338,44.445-25,44.445c-20.663,0-25-24.169-25-44.445H2.083C2.083,83.671,11.689,100,29.861,100
	c18.172,0,27.777-16.329,27.777-47.223H54.861z"></path></svg>